<svg width="38" height="31" viewBox="0 0 38 31" fill="none" xmlns="http://www.w3.org/2000/svg">
<path d="M28.5258 8.68158V1H1V20.3024H17.0152" stroke="#414042" stroke-width="1.5" stroke-miterlimit="10" stroke-linecap="round" stroke-linejoin="round"/>
<path d="M21.8325 12.6626L20.2564 10.8716L12.1455 20.1236" stroke="#414042" stroke-width="1.5" stroke-miterlimit="10" stroke-linecap="round" stroke-linejoin="round"/>
<path d="M16.1214 15.5896L8.3124 6.67529L1.03052 14.9806" stroke="#414042" stroke-width="1.5" stroke-miterlimit="10" stroke-linecap="round" stroke-linejoin="round"/>
<path d="M21.8318 6.60347C21.8318 7.47853 22.5431 8.18983 23.4181 8.18983C24.2932 8.18983 25.0045 7.47853 25.0045 6.60347C25.0045 5.72842 24.2932 5.01712 23.4181 5.01712C22.5431 5.012 21.8318 5.7233 21.8318 6.60347Z" stroke="#414042" stroke-width="1.5" stroke-miterlimit="10" stroke-linecap="round" stroke-linejoin="round"/>
<path d="M32.6295 25.6374C35.5911 22.6758 35.5911 17.874 32.6295 14.9124C29.6679 11.9508 24.8661 11.9508 21.9045 14.9124C18.9429 17.874 18.9429 22.6758 21.9045 25.6374C24.8661 28.599 29.6679 28.599 32.6295 25.6374Z" stroke="#414042" stroke-width="1.5" stroke-miterlimit="10" stroke-linecap="round" stroke-linejoin="round"/>
<path d="M23.5769 20.2771H30.9509" stroke="#414042" stroke-width="1.5" stroke-miterlimit="10" stroke-linecap="round" stroke-linejoin="round"/>
<path d="M27.2668 16.5872V23.9663" stroke="#414042" stroke-width="1.5" stroke-miterlimit="10" stroke-linecap="round" stroke-linejoin="round"/>
</svg>
