<svg width="32" height="27" viewBox="0 0 32 27" fill="none" xmlns="http://www.w3.org/2000/svg">
<path d="M28.0508 2.8879L16.2028 14.7688L15.1963 18.4133L18.8342 17.4002L30.6822 5.5259C30.9388 5.26934 30.8533 4.76279 30.4915 4.40097L29.1757 3.08525C28.8073 2.71685 28.3074 2.63133 28.0508 2.8879Z" stroke="#414042" stroke-width="1.5" stroke-miterlimit="10" stroke-linejoin="round"/>
<path d="M29.2877 6.92067L26.6562 4.28925" stroke="#414042" stroke-width="1.5" stroke-miterlimit="10" stroke-linejoin="round"/>
<path d="M23.3671 5.60499V4.28928C23.3671 2.4736 21.8935 1 20.0778 1H4.28928C2.4736 1 1 2.4736 1 4.28928V18.1043C1 19.92 2.4736 21.3935 4.28928 21.3935H6.26285V25.3407C6.26285 25.9722 7.06544 26.2419 7.44699 25.7354L12.1836 21.3935H20.0778C21.8935 21.3935 23.3671 19.92 23.3671 18.1043V15.4728" stroke="#414042" stroke-width="1.5" stroke-miterlimit="10"/>
<path d="M6.2627 6.92084H18.1041" stroke="#414042" stroke-width="1.5" stroke-miterlimit="10"/>
<path d="M6.2627 9.55212H18.1041" stroke="#414042" stroke-width="1.5" stroke-miterlimit="10"/>
<path d="M6.2627 12.1837H12.8413" stroke="#414042" stroke-width="1.5" stroke-miterlimit="10"/>
</svg>
