<svg width="31" height="27" viewBox="0 0 31 27" fill="none" xmlns="http://www.w3.org/2000/svg">
<path d="M29.2719 15.1735V21.859C29.2719 22.8424 28.4649 23.6494 27.4814 23.6494H25.9909V25.9999L23.636 23.6494H15.4467C14.4633 23.6494 13.6562 22.8424 13.6562 21.859V17.8636H23.7198C25.3382 17.8636 26.6612 16.5406 26.6612 14.9221V13.9696L28.165 13.5198C28.8132 13.7888 29.2719 14.4282 29.2719 15.1735Z" fill="#FAD778"/>
<path d="M28.1606 13.5199C28.8089 13.7889 29.2675 14.4328 29.2675 15.1736V21.8547C29.2675 22.8381 28.4605 23.6451 27.4771 23.6451H25.9821V26.0001L23.6272 23.6451H15.4379C14.4545 23.6451 13.6475 22.8381 13.6475 21.8547V19.3631" stroke="#414042" stroke-width="1.5" stroke-miterlimit="10" stroke-linecap="round" stroke-linejoin="round"/>
<path d="M23.7157 1H3.94144C2.32298 1 1 2.32299 1 3.94144V14.9222C1 16.5407 2.32298 17.8636 3.94144 17.8636H6.39778V21.7312L10.2653 17.8636H23.7201C25.3385 17.8636 26.6615 16.5407 26.6615 14.9222V3.94144C26.6571 2.32299 25.3341 1 23.7157 1Z" stroke="#414042" stroke-width="1.5" stroke-miterlimit="10" stroke-linecap="round" stroke-linejoin="round"/>
<path d="M5.69629 7.24451H21.9602" stroke="#414042" stroke-width="1.5" stroke-miterlimit="10" stroke-linecap="round" stroke-linejoin="round"/>
<path d="M5.69629 11.6191H17.5635" stroke="#414042" stroke-width="1.5" stroke-miterlimit="10" stroke-linecap="round" stroke-linejoin="round"/>
</svg>
