<svg width="32" height="27" viewBox="0 0 32 27" fill="none" xmlns="http://www.w3.org/2000/svg">
<path d="M24.3818 7.45503C26.1643 7.45503 27.6093 6.01002 27.6093 4.22751C27.6093 2.44501 26.1643 1 24.3818 1C22.5993 1 21.1543 2.44501 21.1543 4.22751C21.1543 6.01002 22.5993 7.45503 24.3818 7.45503Z" fill="#FAD778" stroke="#414042" stroke-width="1.5" stroke-miterlimit="10" stroke-linecap="round" stroke-linejoin="round"/>
<path d="M1 4.22754H18.7337" stroke="#414042" stroke-width="1.5" stroke-miterlimit="10" stroke-linecap="round" stroke-linejoin="round"/>
<path d="M27.605 4.22754H31.2337" stroke="#414042" stroke-width="1.5" stroke-miterlimit="10" stroke-linecap="round" stroke-linejoin="round"/>
<path d="M9.86667 16.322C11.6492 16.322 13.0942 14.877 13.0942 13.0945C13.0942 11.3119 11.6492 9.86694 9.86667 9.86694C8.08417 9.86694 6.63916 11.3119 6.63916 13.0945C6.63916 14.877 8.08417 16.322 9.86667 16.322Z" fill="#FAD778" stroke="#414042" stroke-width="1.5" stroke-miterlimit="10" stroke-linecap="round" stroke-linejoin="round"/>
<path d="M1 13.0942H4.22311" stroke="#414042" stroke-width="1.5" stroke-miterlimit="10" stroke-linecap="round" stroke-linejoin="round"/>
<path d="M13.0898 13.0942H31.2336" stroke="#414042" stroke-width="1.5" stroke-miterlimit="10" stroke-linecap="round" stroke-linejoin="round"/>
<path d="M21.1543 25.9999C22.9368 25.9999 24.3818 24.5549 24.3818 22.7724C24.3818 20.9899 22.9368 19.5449 21.1543 19.5449C19.3718 19.5449 17.9268 20.9899 17.9268 22.7724C17.9268 24.5549 19.3718 25.9999 21.1543 25.9999Z" fill="#FAD778" stroke="#414042" stroke-width="1.5" stroke-miterlimit="10" stroke-linecap="round" stroke-linejoin="round"/>
<path d="M1 22.7725H15.5106" stroke="#414042" stroke-width="1.5" stroke-miterlimit="10" stroke-linecap="round" stroke-linejoin="round"/>
<path d="M24.3818 22.7725H31.2337" stroke="#414042" stroke-width="1.5" stroke-miterlimit="10" stroke-linecap="round" stroke-linejoin="round"/>
</svg>
