<svg width="10" height="6" viewBox="0 0 10 6" fill="none" xmlns="http://www.w3.org/2000/svg">
<path d="M4.99938 5.99727C3.5794 5.99727 2.1597 5.99606 0.739713 6C0.63918 6.0003 0.60437 5.97058 0.589889 5.86233C0.500774 5.19793 0.404976 4.53474 0.311128 3.87095C0.20976 3.1553 0.108671 2.43966 0.00618906 1.72401C-0.0183174 1.55389 0.0298601 1.40955 0.152392 1.3304C0.285786 1.24428 0.41723 1.25611 0.541154 1.35709C1.14658 1.85107 1.75228 2.34413 2.35658 2.83933C2.65066 3.0804 2.91076 3.03431 3.11489 2.70075C3.61533 1.88321 4.12411 1.07174 4.61202 0.245713C4.81308 -0.0945223 5.20101 -0.0687469 5.3862 0.244803C5.88162 1.08357 6.39904 1.90686 6.90616 2.73744C7.01644 2.91817 7.16375 3.0049 7.3637 2.98488C7.46173 2.97518 7.54054 2.92211 7.61601 2.86055C8.21029 2.37567 8.80402 1.88988 9.39802 1.4047C9.46179 1.35254 9.52306 1.29523 9.60549 1.28067C9.83774 1.23913 10.0307 1.43532 9.99592 1.68974C9.90681 2.34262 9.81073 2.99459 9.71855 3.64685C9.61718 4.3625 9.51916 5.07906 9.41501 5.7941C9.37908 6.04124 9.42336 5.99575 9.20726 5.99606C7.80454 5.99788 6.40182 5.99727 4.99938 5.99727Z" fill="#4B64E6"/>
</svg>
