<svg width="20" height="13" viewBox="0 0 20 13" fill="none" xmlns="http://www.w3.org/2000/svg">
<path d="M5.91427 5.0198C5.91427 6.03713 6.30872 6.99505 6.99277 7.7104C5.7495 8.41584 4.82079 9.55198 4.37641 10.8861H0.299583C0.132316 10.8861 0 10.755 0 10.5891C0 8.40347 1.45048 6.54455 3.45269 5.91584C2.45408 5.38614 1.77253 4.34406 1.77253 3.14604C1.77004 1.41089 3.19306 0 4.94312 0C6.16392 0 7.22994 0.690594 7.75421 1.70297C6.64825 2.40099 5.91427 3.62624 5.91427 5.0198Z" fill="#414042" fill-opacity="0.6"/>
<path d="M19.7595 10.5891C19.7595 10.755 19.6272 10.8861 19.4599 10.8861H15.3781C14.9362 9.54951 14.0075 8.41832 12.7643 7.71535C13.4483 6.99753 13.8428 6.0396 13.8428 5.0198C13.8428 3.62871 13.1113 2.40347 12.0078 1.70297C12.5296 0.695545 13.5981 0 14.8189 0C16.564 0 17.987 1.41089 17.987 3.14356C17.987 4.34158 17.3054 5.38614 16.3068 5.91337C18.304 6.54455 19.7595 8.40099 19.7595 10.5891Z" fill="#414042" fill-opacity="0.6"/>
<path d="M14.9719 12.6931C14.9719 12.8615 14.8321 13.0001 14.6624 13.0001H5.0957C4.92594 13.0001 4.78613 12.8615 4.78613 12.6931C4.78613 10.4382 6.28155 8.52483 8.34617 7.87632C7.31511 7.33176 6.61359 6.25503 6.61359 5.01988C6.61359 3.23275 8.07905 1.77979 9.88154 1.77979C11.679 1.77979 13.1445 3.23275 13.1445 5.01988C13.1445 6.25503 12.4405 7.33176 11.4119 7.87632C13.4715 8.52483 14.9719 10.4382 14.9719 12.6931Z" fill="#414042" fill-opacity="0.6"/>
</svg>
