<svg width="21" height="13" viewBox="0 0 21 13" fill="none" xmlns="http://www.w3.org/2000/svg">
<path d="M6.41427 5.0198C6.41427 6.03713 6.80872 6.99505 7.49277 7.7104C6.2495 8.41584 5.32079 9.55198 4.87641 10.8861H0.799583C0.632316 10.8861 0.5 10.755 0.5 10.5891C0.5 8.40347 1.95048 6.54455 3.95269 5.91584C2.95408 5.38614 2.27253 4.34406 2.27253 3.14604C2.27004 1.41089 3.69306 0 5.44312 0C6.66392 0 7.72994 0.690594 8.25421 1.70297C7.14825 2.40099 6.41427 3.62624 6.41427 5.0198Z" fill="#4B64E6"/>
<path d="M20.2595 10.5891C20.2595 10.755 20.1272 10.8861 19.9599 10.8861H15.8781C15.4362 9.54951 14.5075 8.41832 13.2643 7.71535C13.9483 6.99753 14.3428 6.0396 14.3428 5.0198C14.3428 3.62871 13.6113 2.40347 12.5078 1.70297C13.0296 0.695545 14.0981 0 15.3189 0C17.064 0 18.487 1.41089 18.487 3.14356C18.487 4.34158 17.8054 5.38614 16.8068 5.91337C18.804 6.54455 20.2595 8.40099 20.2595 10.5891Z" fill="#4B64E6"/>
<path d="M15.4719 12.6931C15.4719 12.8615 15.3321 13.0001 15.1624 13.0001H5.5957C5.42594 13.0001 5.28613 12.8615 5.28613 12.6931C5.28613 10.4382 6.78155 8.52483 8.84617 7.87632C7.81511 7.33176 7.11359 6.25503 7.11359 5.01988C7.11359 3.23275 8.57905 1.77979 10.3815 1.77979C12.179 1.77979 13.6445 3.23275 13.6445 5.01988C13.6445 6.25503 12.9405 7.33176 11.9119 7.87632C13.9715 8.52483 15.4719 10.4382 15.4719 12.6931Z" fill="#4B64E6"/>
</svg>
