<svg width="21" height="18" viewBox="0 0 21 18" fill="none" xmlns="http://www.w3.org/2000/svg">
<path d="M1.28401 7.33534L1.27777 7.31578L1.27047 7.29659C0.822891 6.12071 0.822608 4.6191 1.34405 3.38138C1.85235 2.17486 2.83965 1.24172 4.41323 1.05402C6.03964 0.860005 7.31583 1.46676 8.21091 2.15147C8.65892 2.49419 9.00289 2.85074 9.23383 3.12072C9.34886 3.25518 9.43455 3.36665 9.48988 3.44204C9.51752 3.47968 9.53747 3.50819 9.54961 3.52588L9.56192 3.54407L9.56296 3.54562L9.56337 3.54625L9.5634 3.54629L9.56364 3.54666L10.193 4.52244L10.8218 3.54636L10.8221 3.54601L10.8221 3.54596L10.8225 3.54533L10.8228 3.5449L10.8236 3.54377L10.8359 3.52556C10.848 3.50784 10.868 3.47931 10.8956 3.44162C10.9509 3.36616 11.0366 3.25458 11.1517 3.12C11.3826 2.84978 11.7266 2.49296 12.1745 2.15009C13.0695 1.46508 14.3454 0.858515 15.9714 1.05394C17.5457 1.24314 18.534 2.17682 19.0426 3.3829C19.5644 4.62004 19.564 6.12039 19.1151 7.29582L19.1074 7.31596L19.1009 7.33651C18.8468 8.13706 18.1752 9.16945 17.2289 10.311C16.2974 11.4346 15.1561 12.598 14.04 13.6555C12.9257 14.7112 11.847 15.6515 11.0462 16.3283C10.7059 16.616 10.4162 16.8556 10.1961 17.0358C9.97587 16.8556 9.6862 16.616 9.34577 16.3283C8.54483 15.6514 7.4659 14.7111 6.35121 13.6554C5.23466 12.5979 4.09263 11.4344 3.1601 10.3107C2.21279 9.16914 1.53971 8.13641 1.28401 7.33534Z" stroke="#414042" stroke-width="1.5"/>
</svg>
