<svg width="13" height="18" viewBox="0 0 13 18" fill="none" xmlns="http://www.w3.org/2000/svg">
<path d="M10.6597 17H2.24394C1.28477 17 0.5 16.2083 0.5 15.2406V8.29121C0.5 7.32357 1.28477 6.53186 2.24394 6.53186H10.6597C11.6189 6.53186 12.4036 7.32357 12.4036 8.29121V15.2406C12.4036 16.2083 11.6189 17 10.6597 17Z" fill="#00877D" stroke="#414042" stroke-miterlimit="10" stroke-linecap="round" stroke-linejoin="round"/>
<path d="M2.3761 6.53189V5.11184C2.3761 2.84983 4.20973 1 6.45194 1C8.69415 1 10.5278 2.84983 10.5278 5.11184V6.53189" stroke="#414042" stroke-miterlimit="10" stroke-linecap="round" stroke-linejoin="round"/>
<path d="M8.01634 11.0333C8.01634 10.1612 7.31627 9.45496 6.45177 9.45496C5.58727 9.45496 4.88721 10.1612 4.88721 11.0333C4.88721 11.6567 5.24596 12.192 5.76416 12.4509V13.3833C5.76416 13.7654 6.07309 14.077 6.45177 14.077C6.83046 14.077 7.13938 13.7654 7.13938 13.3833V12.4509C7.65758 12.1945 8.01634 11.6567 8.01634 11.0333Z" fill="white" stroke="#414042" stroke-miterlimit="10" stroke-linecap="round" stroke-linejoin="round"/>
</svg>
