<svg width="28" height="27" viewBox="0 0 28 27" fill="none" xmlns="http://www.w3.org/2000/svg">
<path d="M8.96023 16.9318C13.3565 16.9318 16.9205 13.3654 16.9205 8.96591C16.9205 4.56646 13.3565 1 8.96023 1C4.56392 1 1 4.56646 1 8.96591C1 13.3654 4.56392 16.9318 8.96023 16.9318Z" stroke="#414042" stroke-width="1.5" stroke-miterlimit="10" stroke-linejoin="round"/>
<path d="M6.68262 5.54559V7.81832" stroke="#414042" stroke-width="1.5" stroke-miterlimit="10" stroke-linejoin="round"/>
<path d="M11.2266 5.54559V7.81832" stroke="#414042" stroke-width="1.5" stroke-miterlimit="10" stroke-linejoin="round"/>
<path d="M18.0454 10.1478C18.4147 10.0967 18.7897 10.0683 19.176 10.0683C23.5738 10.0683 27.1363 13.6365 27.1363 18.0342C27.1363 22.4319 23.5738 26.0001 19.176 26.0001C14.7783 26.0001 11.2158 22.4319 11.2158 18.0342" stroke="#414042" stroke-width="1.5" stroke-miterlimit="10" stroke-linejoin="round"/>
<path d="M16.9092 14.6365V16.9092" stroke="#414042" stroke-width="1.5" stroke-miterlimit="10" stroke-linejoin="round"/>
<path d="M21.4541 14.6365V16.9092" stroke="#414042" stroke-width="1.5" stroke-miterlimit="10" stroke-linejoin="round"/>
<path d="M22.6264 20.6024C21.7514 21.6649 20.598 22.3069 19.3366 22.3069C18.0753 22.3069 16.9219 21.6649 16.0469 20.6024" stroke="#414042" stroke-width="1.5" stroke-miterlimit="10" stroke-linejoin="round"/>
<path d="M12.1254 11.7956C11.2504 12.8581 10.097 13.5001 8.83567 13.5001C7.57431 13.5001 6.4209 12.8581 5.5459 11.7956" stroke="#414042" stroke-width="1.5" stroke-miterlimit="10" stroke-linejoin="round"/>
</svg>
