<svg width="3" height="16" viewBox="0 0 3 16" fill="none" xmlns="http://www.w3.org/2000/svg">
<path d="M1.36617 2.92412C2.12068 2.92412 2.73233 2.26953 2.73233 1.46206C2.73233 0.654587 2.12068 0 1.36617 0C0.611654 0 0 0.654587 0 1.46206C0 2.26953 0.611654 2.92412 1.36617 2.92412Z" fill="#414042"/>
<path d="M1.36617 9.46465C2.12068 9.46465 2.73233 8.81006 2.73233 8.00259C2.73233 7.19511 2.12068 6.54053 1.36617 6.54053C0.611654 6.54053 0 7.19511 0 8.00259C0 8.81006 0.611654 9.46465 1.36617 9.46465Z" fill="#414042"/>
<path d="M1.36617 16C2.12068 16 2.73233 15.3455 2.73233 14.538C2.73233 13.7305 2.12068 13.0759 1.36617 13.0759C0.611654 13.0759 0 13.7305 0 14.538C0 15.3455 0.611654 16 1.36617 16Z" fill="#414042"/>
</svg>
