<svg width="25" height="27" viewBox="0 0 25 27" fill="none" xmlns="http://www.w3.org/2000/svg">
<path d="M23.3673 15.475V18.1073C23.3673 19.9238 21.8947 21.3964 20.0781 21.3964H12.1858L7.45049 25.735C7.07131 26.242 6.26445 25.9731 6.26445 25.3381V21.392H4.28918C2.47263 21.392 1 19.9194 1 18.1028V4.28918C1 2.47263 2.47263 1 4.28918 1H20.0781C21.8947 1 23.3673 2.47263 23.3673 4.28918V5.60309V15.475Z" fill="#FAD778"/>
<path d="M23.3673 15.475V18.1073C23.3673 19.9238 21.8947 21.3964 20.0781 21.3964H12.1858L7.45049 25.735C7.07131 26.242 6.26445 25.9731 6.26445 25.3381V21.392H4.28918C2.47263 21.392 1 19.9194 1 18.1028V4.28918C1 2.47263 2.47263 1 4.28918 1H20.0781C21.8947 1 23.3673 2.47263 23.3673 4.28918V5.60308V15.475Z" stroke="#414042" stroke-width="1.5" stroke-miterlimit="10" stroke-linecap="round" stroke-linejoin="round"/>
<path d="M6.26465 6.92139H18.103" stroke="#414042" stroke-width="1.5" stroke-miterlimit="10" stroke-linecap="round" stroke-linejoin="round"/>
<path d="M6.26465 10.9204H18.103" stroke="#414042" stroke-width="1.5" stroke-miterlimit="10" stroke-linecap="round" stroke-linejoin="round"/>
<path d="M6.26465 14.9194H12.843" stroke="#414042" stroke-width="1.5" stroke-miterlimit="10" stroke-linecap="round" stroke-linejoin="round"/>
</svg>
